STARTFONT 2.1
COMMENT  (c) Copyright Bigelow & Holmes 1986, 1985. Lucida is a registered
COMMENT  trademark of Bigelow & Holmes. See LEGAL NOTICE file for terms 
COMMENT  of the license. 
FONT -B&H-LucidaBright-DemiBold-R-Normal--20-140-100-100-P-118-ISO8859-1
SIZE 14 100 100
FONTBOUNDINGBOX 35 23 -12 -4
STARTPROPERTIES 19
COMMENT Begin LogicalFontDescription
FONTNAME_REGISTRY ""
FOUNDRY "B&H"
FAMILY_NAME "LucidaBright"
WEIGHT_NAME "DemiBold"
SLANT "R"
SETWIDTH_NAME "Normal"
ADD_STYLE_NAME ""
PIXEL_SIZE 20
POINT_SIZE 140
RESOLUTION_X 100
RESOLUTION_Y 100
SPACING "P"
AVERAGE_WIDTH 118
CHARSET_REGISTRY "ISO8859"
CHARSET_ENCODING "1"
COMMENT END LogicalFontDescription
FONT_ASCENT 18
FONT_DESCENT 5
DEFAULT_CHAR 32
COPYRIGHT "Copyright Bigelow & Holmes 1986, 1985."
ENDPROPERTIES
CHARS 228
STARTCHAR space
ENCODING 32
SWIDTH 42 0
DWIDTH 7 0
BBX 1 1 0 0
BITMAP
00
ENDCHAR
STARTCHAR exclam
ENCODING 33
SWIDTH 42 0
DWIDTH 5 0
BBX 3 15 1 0
BITMAP
E0
E0
E0
E0
E0
E0
E0
40
40
40
40
00
E0
E0
E0
ENDCHAR
STARTCHAR quotedbl
ENCODING 34
SWIDTH 42 0
DWIDTH 9 0
BBX 7 6 1 9
BITMAP
EE
EE
EE
44
44
44
ENDCHAR
STARTCHAR numbersign
ENCODING 35
SWIDTH 42 0
DWIDTH 13 0
BBX 12 15 1 0
BITMAP
0440
0440
0440
0440
0880
7FF0
0880
0880
1100
1100
FFE0
1100
2200
2200
2200
ENDCHAR
STARTCHAR dollar
ENCODING 36
SWIDTH 42 0
DWIDTH 12 0
BBX 9 18 2 -2
BITMAP
0800
3F80
7980
E880
E800
E800
7800
7800
1E00
0F00
0F80
0B80
8B80
8B80
CB00
FE00
0800
0800
ENDCHAR
STARTCHAR percent
ENCODING 37
SWIDTH 42 0
DWIDTH 15 0
BBX 15 15 0 0
BITMAP
3806
4408
C610
C630
C660
C640
4480
3900
0238
0444
0CC6
18C6
10C6
2044
C038
ENDCHAR
STARTCHAR ampersand
ENCODING 38
SWIDTH 42 0
DWIDTH 15 0
BBX 14 15 1 0
BITMAP
0F00
19C0
39C0
39C0
1980
1F00
1C00
7E7C
6618
E718
E390
E3F0
F1E0
70F0
1F7C
ENDCHAR
STARTCHAR quoteright
ENCODING 39
SWIDTH 42 0
DWIDTH 5 0
BBX 3 6 1 9
BITMAP
E0
E0
E0
60
60
C0
ENDCHAR
STARTCHAR parenleft
ENCODING 40
SWIDTH 42 0
DWIDTH 7 0
BBX 5 19 1 -4
BITMAP
08
18
30
30
60
60
E0
E0
E0
E0
E0
E0
E0
60
60
30
30
18
08
ENDCHAR
STARTCHAR parenright
ENCODING 41
SWIDTH 42 0
DWIDTH 7 0
BBX 5 19 1 -4
BITMAP
80
C0
60
60
30
30
38
38
38
38
38
38
38
30
30
60
60
C0
80
ENDCHAR
STARTCHAR asterisk
ENCODING 42
SWIDTH 42 0
DWIDTH 9 0
BBX 8 7 0 8
BITMAP
18
59
FF
66
3C
66
24
ENDCHAR
STARTCHAR plus
ENCODING 43
SWIDTH 42 0
DWIDTH 12 0
BBX 11 13 1 0
BITMAP
0400
0400
0400
0400
0400
0400
FFE0
0400
0400
0400
0400
0400
0400
ENDCHAR
STARTCHAR comma
ENCODING 44
SWIDTH 42 0
DWIDTH 5 0
BBX 3 7 1 -3
BITMAP
E0
E0
E0
E0
60
60
C0
ENDCHAR
STARTCHAR minus
ENCODING 45
SWIDTH 42 0
DWIDTH 12 0
BBX 12 1 0 6
BITMAP
FFF0
ENDCHAR
STARTCHAR period
ENCODING 46
SWIDTH 42 0
DWIDTH 5 0
BBX 3 3 1 0
BITMAP
E0
E0
E0
ENDCHAR
STARTCHAR slash
ENCODING 47
SWIDTH 42 0
DWIDTH 11 0
BBX 11 18 0 -3
BITMAP
0060
0040
0080
0080
0100
0100
0200
0200
0400
0400
0800
0800
1000
1000
2000
2000
4000
C000
ENDCHAR
STARTCHAR zero
ENCODING 48
SWIDTH 42 0
DWIDTH 12 0
BBX 11 15 1 0
BITMAP
1F00
3180
71C0
60C0
E0E0
E0E0
E0E0
E0E0
E0E0
E0E0
E0E0
60C0
71C0
3180
1F00
ENDCHAR
STARTCHAR one
ENCODING 49
SWIDTH 42 0
DWIDTH 12 0
BBX 9 15 2 0
BITMAP
FC00
1C00
1C00
1C00
1C00
1C00
1C00
1C00
1C00
1C00
1C00
1C00
1C00
3E00
FF80
ENDCHAR
STARTCHAR two
ENCODING 50
SWIDTH 42 0
DWIDTH 12 0
BBX 10 15 1 0
BITMAP
7F00
C380
C1C0
81C0
01C0
01C0
0380
0300
0400
1800
3000
6000
7FC0
FFC0
FFC0
ENDCHAR
STARTCHAR three
ENCODING 51
SWIDTH 42 0
DWIDTH 12 0
BBX 9 15 2 0
BITMAP
FE00
C700
8380
0380
0380
0300
0600
7E00
0F00
0380
0380
0380
8380
8700
FC00
ENDCHAR
STARTCHAR four
ENCODING 52
SWIDTH 42 0
DWIDTH 12 0
BBX 12 15 0 0
BITMAP
01C0
03C0
03C0
05C0
09C0
11C0
31C0
61C0
41C0
FFF0
FFF0
01C0
01C0
01C0
07F0
ENDCHAR
STARTCHAR five
ENCODING 53
SWIDTH 42 0
DWIDTH 12 0
BBX 9 15 2 0
BITMAP
FF80
FF80
8000
8000
8000
8000
FC00
0F00
0780
0380
0380
0380
8380
8700
FC00
ENDCHAR
STARTCHAR six
ENCODING 54
SWIDTH 42 0
DWIDTH 12 0
BBX 11 15 1 0
BITMAP
0FC0
3840
7040
7000
E000
E000
EF80
F1C0
E0E0
E0E0
E0E0
60E0
70C0
31C0
1F00
ENDCHAR
STARTCHAR seven
ENCODING 55
SWIDTH 42 0
DWIDTH 12 0
BBX 10 15 2 0
BITMAP
FFC0
FFC0
FFC0
0080
0100
0300
0600
0400
0C00
1800
1800
3800
3000
7000
7000
ENDCHAR
STARTCHAR eight
ENCODING 56
SWIDTH 42 0
DWIDTH 12 0
BBX 11 15 1 0
BITMAP
1F00
3380
71C0
71C0
71C0
7980
3E00
1F80
63C0
E1E0
E0E0
E0E0
E0E0
71C0
1F00
ENDCHAR
STARTCHAR nine
ENCODING 57
SWIDTH 42 0
DWIDTH 12 0
BBX 11 15 1 0
BITMAP
1F00
7180
61C0
E0C0
E0E0
E0E0
E0E0
71E0
3EE0
00E0
00E0
01C0
41C0
4380
7E00
ENDCHAR
STARTCHAR colon
ENCODING 58
SWIDTH 42 0
DWIDTH 5 0
BBX 3 11 1 0
BITMAP
E0
E0
E0
00
00
00
00
00
E0
E0
E0
ENDCHAR
STARTCHAR semicolon
ENCODING 59
SWIDTH 42 0
DWIDTH 5 0
BBX 3 14 1 -3
BITMAP
E0
E0
E0
00
00
00
00
00
E0
E0
E0
60
60
C0
ENDCHAR
STARTCHAR less
ENCODING 60
SWIDTH 42 0
DWIDTH 12 0
BBX 11 13 -1 0
BITMAP
0020
0060
0180
0600
1800
3000
C000
3000
1800
0600
0180
0060
0020
ENDCHAR
STARTCHAR equal
ENCODING 61
SWIDTH 42 0
DWIDTH 12 0
BBX 12 6 0 3
BITMAP
FFF0
0000
0000
0000
0000
FFF0
ENDCHAR
STARTCHAR greater
ENCODING 62
SWIDTH 42 0
DWIDTH 12 0
BBX 11 13 0 0
BITMAP
8000
C000
3000
0C00
0300
0180
0060
0180
0300
0C00
3000
C000
8000
ENDCHAR
STARTCHAR question
ENCODING 63
SWIDTH 42 0
DWIDTH 10 0
BBX 9 15 1 0
BITMAP
FE00
C700
8380
0380
0380
0300
0400
0C00
1800
3800
3800
0000
3800
3800
3800
ENDCHAR
STARTCHAR at
ENCODING 64
SWIDTH 42 0
DWIDTH 17 0
BBX 16 15 1 0
BITMAP
03F0
0E0C
1806
21C2
6331
4631
8631
8C31
8C61
8CE2
8CE4
4778
6000
3020
0FC0
ENDCHAR
STARTCHAR A
ENCODING 65
SWIDTH 42 0
DWIDTH 16 0
BBX 16 15 0 0
BITMAP
0180
0180
03C0
03C0
07E0
04E0
04F0
0870
0870
1FF8
1038
201C
201C
601E
F03F
ENDCHAR
STARTCHAR B
ENCODING 66
SWIDTH 42 0
DWIDTH 13 0
BBX 12 15 0 0
BITMAP
FF80
39C0
38E0
38E0
38E0
38C0
3980
3F80
38E0
3870
3870
3870
3870
38E0
FFC0
ENDCHAR
STARTCHAR C
ENCODING 67
SWIDTH 42 0
DWIDTH 14 0
BBX 13 15 1 0
BITMAP
07F0
1C18
3808
7008
E000
E000
E000
E000
E000
E000
E000
7000
3800
1C08
07F0
ENDCHAR
STARTCHAR D
ENCODING 68
SWIDTH 42 0
DWIDTH 16 0
BBX 15 15 0 0
BITMAP
FFE0
3878
381C
381C
380E
380E
380E
380E
380E
380E
380C
381C
3818
3830
FFE0
ENDCHAR
STARTCHAR E
ENCODING 69
SWIDTH 42 0
DWIDTH 12 0
BBX 12 15 0 0
BITMAP
FFE0
3820
3820
3800
3800
3800
3840
3FC0
3840
3800
3800
3800
3810
3830
FFF0
ENDCHAR
STARTCHAR F
ENCODING 70
SWIDTH 42 0
DWIDTH 12 0
BBX 11 15 0 0
BITMAP
FFE0
3820
3820
3800
3800
3800
3840
3FC0
3840
3800
3800
3800
3800
3800
FE00
ENDCHAR
STARTCHAR G
ENCODING 71
SWIDTH 42 0
DWIDTH 15 0
BBX 14 15 1 0
BITMAP
0FE0
1C30
3010
7010
E000
E000
E000
E000
E1FC
E070
E070
7070
7070
3870
0FE0
ENDCHAR
STARTCHAR H
ENCODING 72
SWIDTH 42 0
DWIDTH 16 0
BBX 16 15 0 0
BITMAP
FE7F
381C
381C
381C
381C
381C
381C
3FFC
381C
381C
381C
381C
381C
381C
FE7F
ENDCHAR
STARTCHAR I
ENCODING 73
SWIDTH 42 0
DWIDTH 7 0
BBX 7 15 0 0
BITMAP
FE
38
38
38
38
38
38
38
38
38
38
38
38
38
FE
ENDCHAR
STARTCHAR J
ENCODING 74
SWIDTH 42 0
DWIDTH 9 0
BBX 9 18 0 -3
BITMAP
3F80
0E00
0E00
0E00
0E00
0E00
0E00
0E00
0E00
0E00
0E00
0E00
0E00
0E00
0E00
8E00
9C00
F800
ENDCHAR
STARTCHAR K
ENCODING 75
SWIDTH 42 0
DWIDTH 15 0
BBX 15 15 0 0
BITMAP
FC3C
3830
3820
3840
3880
3900
3B00
3F00
3F80
3BC0
39E0
38F0
3878
387C
FCFE
ENDCHAR
STARTCHAR L
ENCODING 76
SWIDTH 42 0
DWIDTH 12 0
BBX 12 15 0 0
BITMAP
FE00
3800
3800
3800
3800
3800
3800
3800
3800
3800
3800
3800
3830
3810
FFF0
ENDCHAR
STARTCHAR M
ENCODING 77
SWIDTH 42 0
DWIDTH 18 0
BBX 18 15 0 0
BITMAP
F807C0
3C0700
3C0F00
3E0F00
2E1F00
2E1700
273700
272700
27A700
23C700
23C700
218700
218700
200700
F00FC0
ENDCHAR
STARTCHAR N
ENCODING 78
SWIDTH 42 0
DWIDTH 16 0
BBX 15 15 0 0
BITMAP
F03E
3808
3C08
3C08
3E08
2F08
2788
2388
23C8
21E8
20E8
20F8
2078
2038
F818
ENDCHAR
STARTCHAR O
ENCODING 79
SWIDTH 42 0
DWIDTH 16 0
BBX 15 15 1 0
BITMAP
0FE0
1C70
3018
701C
E00E
E00E
E00E
E00E
E00E
E00E
E00E
701C
3018
1C70
0FE0
ENDCHAR
STARTCHAR P
ENCODING 80
SWIDTH 42 0
DWIDTH 12 0
BBX 12 15 0 0
BITMAP
FFC0
38E0
3870
3870
3870
3870
3860
38E0
3F80
3800
3800
3800
3800
3800
FE00
ENDCHAR
STARTCHAR Q
ENCODING 81
SWIDTH 42 0
DWIDTH 16 0
BBX 17 19 1 -4
BITMAP
0FE000
1C7000
301800
701C00
E00E00
E00E00
E00E00
E00E00
E00E00
E00E00
E00E00
701C00
301C00
1C7800
0FE000
007800
003E00
000F80
000600
ENDCHAR
STARTCHAR R
ENCODING 82
SWIDTH 42 0
DWIDTH 14 0
BBX 15 15 0 0
BITMAP
FFC0
38E0
3870
3870
3870
3870
39E0
3FC0
3BC0
39E0
38E0
38F0
3878
387C
FC3E
ENDCHAR
STARTCHAR S
ENCODING 83
SWIDTH 42 0
DWIDTH 11 0
BBX 10 15 1 0
BITMAP
3F00
7180
E080
E080
E000
F800
7E00
3F00
0F80
03C0
01C0
81C0
81C0
C380
7E00
ENDCHAR
STARTCHAR T
ENCODING 84
SWIDTH 42 0
DWIDTH 14 0
BBX 13 15 1 0
BITMAP
FFF8
C708
8708
0700
0700
0700
0700
0700
0700
0700
0700
0700
0700
0700
1FC0
ENDCHAR
STARTCHAR U
ENCODING 85
SWIDTH 42 0
DWIDTH 15 0
BBX 15 15 0 0
BITMAP
FE3E
3808
3808
3808
3808
3808
3808
3808
3808
3808
3808
3808
1C10
1C10
07E0
ENDCHAR
STARTCHAR V
ENCODING 86
SWIDTH 42 0
DWIDTH 15 0
BBX 15 15 0 0
BITMAP
FC1E
780C
3808
3C08
1C10
1C10
0E30
0E20
0F20
0740
0740
0380
0380
0380
0100
ENDCHAR
STARTCHAR W
ENCODING 87
SWIDTH 42 0
DWIDTH 19 0
BBX 19 15 0 0
BITMAP
FC61E0
7060C0
787080
387080
38F080
3CF100
1CB900
1D3900
1D3A00
1F1E00
0E1E00
0E1C00
0E0C00
040C00
040C00
ENDCHAR
STARTCHAR X
ENCODING 88
SWIDTH 42 0
DWIDTH 14 0
BBX 14 15 0 0
BITMAP
FE3C
3818
3C10
1C20
0E40
0FC0
0780
0780
07C0
09C0
19E0
10E0
20F0
6078
F0FC
ENDCHAR
STARTCHAR Y
ENCODING 89
SWIDTH 42 0
DWIDTH 14 0
BBX 15 15 0 0
BITMAP
FE1E
780C
3C08
1C10
1E30
0F20
0740
07C0
0380
0380
0380
0380
0380
0380
0FE0
ENDCHAR
STARTCHAR Z
ENCODING 90
SWIDTH 42 0
DWIDTH 13 0
BBX 11 15 1 0
BITMAP
7FE0
41E0
41C0
03C0
0380
0700
0F00
0E00
1E00
1C00
3800
7800
7020
F060
FFE0
ENDCHAR
STARTCHAR bracketleft
ENCODING 91
SWIDTH 42 0
DWIDTH 7 0
BBX 5 18 1 -3
BITMAP
F8
E0
E0
E0
E0
E0
E0
E0
E0
E0
E0
E0
E0
E0
E0
E0
E0
F8
ENDCHAR
STARTCHAR backslash
ENCODING 92
SWIDTH 42 0
DWIDTH 11 0
BBX 11 18 0 -3
BITMAP
C000
4000
2000
2000
1000
1000
0800
0800
0400
0400
0200
0200
0100
0100
0080
0080
0040
0060
ENDCHAR
STARTCHAR bracketright
ENCODING 93
SWIDTH 42 0
DWIDTH 7 0
BBX 5 18 0 -3
BITMAP
F8
38
38
38
38
38
38
38
38
38
38
38
38
38
38
38
38
F8
ENDCHAR
STARTCHAR asciicircum
ENCODING 94
SWIDTH 42 0
DWIDTH 12 0
BBX 12 12 0 2
BITMAP
0200
0600
0600
0900
0900
1080
1080
2040
2040
6060
4020
C030
ENDCHAR
STARTCHAR underscore
ENCODING 95
SWIDTH 42 0
DWIDTH 10 0
BBX 8 1 1 -2
BITMAP
FF
ENDCHAR
STARTCHAR quoteleft
ENCODING 96
SWIDTH 42 0
DWIDTH 5 0
BBX 3 6 1 9
BITMAP
60
C0
C0
E0
E0
E0
ENDCHAR
STARTCHAR a
ENCODING 97
SWIDTH 42 0
DWIDTH 11 0
BBX 10 11 1 0
BITMAP
3E00
6300
4380
0380
0380
3F80
F380
E380
E380
E380
7DC0
ENDCHAR
STARTCHAR b
ENCODING 98
SWIDTH 42 0
DWIDTH 13 0
BBX 13 15 0 0
BITMAP
F800
3800
3800
3800
39E0
3BF0
3C70
3838
3838
3838
3838
3838
3870
3C70
3BC0
ENDCHAR
STARTCHAR c
ENCODING 99
SWIDTH 42 0
DWIDTH 11 0
BBX 9 11 1 0
BITMAP
1F80
7080
6080
E000
E000
E000
E000
E000
7000
3880
1F80
ENDCHAR
STARTCHAR d
ENCODING 100
SWIDTH 42 0
DWIDTH 13 0
BBX 13 15 0 0
BITMAP
03E0
00E0
00E0
00E0
1EE0
71E0
60E0
E0E0
E0E0
E0E0
E0E0
E0E0
71E0
7EF0
3CF8
ENDCHAR
STARTCHAR e
ENCODING 101
SWIDTH 42 0
DWIDTH 11 0
BBX 10 11 0 0
BITMAP
1F00
7380
6180
E1C0
E1C0
FFC0
E000
E000
7000
3840
1FC0
ENDCHAR
STARTCHAR f
ENCODING 102
SWIDTH 42 0
DWIDTH 8 0
BBX 9 15 0 0
BITMAP
1F80
3880
3880
3800
FF00
3800
3800
3800
3800
3800
3800
3800
3800
3800
FE00
ENDCHAR
STARTCHAR g
ENCODING 103
SWIDTH 42 0
DWIDTH 12 0
BBX 12 15 0 -4
BITMAP
1FF0
31A0
71C0
71C0
71C0
3180
1F00
1000
3000
7FC0
1FE0
E0E0
E0E0
F1C0
3F00
ENDCHAR
STARTCHAR h
ENCODING 104
SWIDTH 42 0
DWIDTH 13 0
BBX 14 15 0 0
BITMAP
F800
3800
3800
3800
39E0
3BF0
3C70
3870
3870
3870
3870
3870
3870
3870
FFFC
ENDCHAR
STARTCHAR i
ENCODING 105
SWIDTH 42 0
DWIDTH 7 0
BBX 7 15 0 0
BITMAP
38
38
38
00
F8
38
38
38
38
38
38
38
38
38
FE
ENDCHAR
STARTCHAR j
ENCODING 106
SWIDTH 42 0
DWIDTH 7 0
BBX 7 19 0 -4
BITMAP
0E
0E
0E
00
3E
0E
0E
0E
0E
0E
0E
0E
0E
0E
0E
0E
8E
8E
FC
ENDCHAR
STARTCHAR k
ENCODING 107
SWIDTH 42 0
DWIDTH 12 0
BBX 13 15 0 0
BITMAP
F800
3800
3800
3800
38F0
3860
3880
3900
3B00
3F80
3B80
3BC0
39E0
38F0
FCF8
ENDCHAR
STARTCHAR l
ENCODING 108
SWIDTH 42 0
DWIDTH 7 0
BBX 7 15 0 0
BITMAP
F8
38
38
38
38
38
38
38
38
38
38
38
38
38
FE
ENDCHAR
STARTCHAR m
ENCODING 109
SWIDTH 42 0
DWIDTH 19 0
BBX 19 11 0 0
BITMAP
FBCF00
3FFF80
3CF380
38E380
38E380
38E380
38E380
38E380
38E380
38E380
FDF7E0
ENDCHAR
STARTCHAR n
ENCODING 110
SWIDTH 42 0
DWIDTH 13 0
BBX 14 11 0 0
BITMAP
F9E0
7BF0
3C70
3870
3870
3870
3870
3870
3870
3870
FFFC
ENDCHAR
STARTCHAR o
ENCODING 111
SWIDTH 42 0
DWIDTH 12 0
BBX 11 11 1 0
BITMAP
1F00
71C0
71C0
E0E0
E0E0
E0E0
E0E0
E0E0
71C0
31C0
1F00
ENDCHAR
STARTCHAR p
ENCODING 112
SWIDTH 42 0
DWIDTH 13 0
BBX 13 15 0 -4
BITMAP
F9E0
7BF0
3C70
3838
3838
3838
3838
3838
3870
3C70
3BC0
3800
3800
3800
FE00
ENDCHAR
STARTCHAR q
ENCODING 113
SWIDTH 42 0
DWIDTH 13 0
BBX 13 15 0 -4
BITMAP
1EE0
71E0
70E0
E0E0
E0E0
E0E0
E0E0
E0E0
71E0
7EE0
3CE0
00E0
00E0
00E0
03F8
ENDCHAR
STARTCHAR r
ENCODING 114
SWIDTH 42 0
DWIDTH 9 0
BBX 9 11 0 0
BITMAP
F980
3F80
3C80
3800
3800
3800
3800
3800
3800
3800
FE00
ENDCHAR
STARTCHAR s
ENCODING 115
SWIDTH 42 0
DWIDTH 10 0
BBX 9 11 1 0
BITMAP
3F00
7100
E100
F000
FC00
7F00
1F80
8780
8380
C700
7E00
ENDCHAR
STARTCHAR t
ENCODING 116
SWIDTH 42 0
DWIDTH 8 0
BBX 7 14 0 0
BITMAP
30
70
70
FE
70
70
70
70
70
70
70
70
70
3E
ENDCHAR
STARTCHAR u
ENCODING 117
SWIDTH 42 0
DWIDTH 13 0
BBX 14 11 0 0
BITMAP
F9F0
3870
3870
3870
3870
3870
3870
3870
38F0
3F78
1E7C
ENDCHAR
STARTCHAR v
ENCODING 118
SWIDTH 42 0
DWIDTH 13 0
BBX 13 11 0 0
BITMAP
FC78
7830
3820
3C40
1C40
1E80
0E80
0F80
0700
0700
0200
ENDCHAR
STARTCHAR w
ENCODING 119
SWIDTH 42 0
DWIDTH 18 0
BBX 18 11 0 0
BITMAP
FC63C0
706180
38F100
38F100
39F200
1D3A00
1D3A00
1E3C00
0E1C00
0C1C00
040800
ENDCHAR
STARTCHAR x
ENCODING 120
SWIDTH 42 0
DWIDTH 12 0
BBX 12 11 0 0
BITMAP
FCF0
7840
3C80
1D80
0F00
0F00
0F80
1B80
33C0
61E0
F3F0
ENDCHAR
STARTCHAR y
ENCODING 121
SWIDTH 42 0
DWIDTH 13 0
BBX 13 15 0 -4
BITMAP
FC78
7830
3820
3C40
1C40
1C80
0E80
0F00
0700
0600
0600
0400
0C00
1800
3800
ENDCHAR
STARTCHAR z
ENCODING 122
SWIDTH 42 0
DWIDTH 12 0
BBX 10 11 1 0
BITMAP
FFC0
C3C0
8780
0700
0E00
1E00
3C00
3800
7840
F0C0
FFC0
ENDCHAR
STARTCHAR braceleft
ENCODING 123
SWIDTH 42 0
DWIDTH 7 0
BBX 5 18 1 -3
BITMAP
38
70
70
70
70
70
70
70
E0
60
70
70
70
70
70
70
70
38
ENDCHAR
STARTCHAR bar
ENCODING 124
SWIDTH 42 0
DWIDTH 5 0
BBX 1 18 2 -3
BITMAP
80
80
80
80
80
80
80
80
80
80
80
80
80
80
80
80
80
80
ENDCHAR
STARTCHAR braceright
ENCODING 125
SWIDTH 42 0
DWIDTH 7 0
BBX 5 18 1 -3
BITMAP
E0
70
70
70
70
70
70
70
38
30
70
70
70
70
70
70
70
E0
ENDCHAR
STARTCHAR asciitilde
ENCODING 126
SWIDTH 42 0
DWIDTH 12 0
BBX 12 4 0 4
BITMAP
7810
4C10
8320
81E0
ENDCHAR
STARTCHAR exclamdown
ENCODING 161
SWIDTH 42 0
DWIDTH 5 0
BBX 3 15 1 -4
BITMAP
E0
E0
E0
00
40
40
40
40
E0
E0
E0
E0
E0
E0
E0
ENDCHAR
STARTCHAR cent
ENCODING 162
SWIDTH 42 0
DWIDTH 12 0
BBX 9 15 1 0
BITMAP
0400
0400
1F80
7580
6480
E400
E400
E400
E400
E400
6400
3480
1F80
0400
0400
ENDCHAR
STARTCHAR sterling
ENCODING 163
SWIDTH 42 0
DWIDTH 12 0
BBX 9 15 2 0
BITMAP
0F80
1880
3880
3800
3800
3800
FE00
3800
3800
3800
3000
6000
FF80
FF80
FF80
ENDCHAR
STARTCHAR currency
ENCODING 164
SWIDTH 42 0
DWIDTH 12 0
BBX 13 13 0 1
BITMAP
8008
4010
3FE0
38E0
3060
2020
2020
2020
3060
38E0
3FE0
4010
8008
ENDCHAR
STARTCHAR yen
ENCODING 165
SWIDTH 42 0
DWIDTH 12 0
BBX 13 15 0 0
BITMAP
FC78
7810
3820
3C60
1E40
0E80
0700
3FC0
0700
0700
3FC0
0700
0700
0700
1FC0
ENDCHAR
STARTCHAR brokenbar
ENCODING 166
SWIDTH 42 0
DWIDTH 5 0
BBX 1 18 2 -3
BITMAP
80
80
80
80
80
80
80
80
00
00
80
80
80
80
80
80
80
80
ENDCHAR
STARTCHAR section
ENCODING 167
SWIDTH 42 0
DWIDTH 12 0
BBX 9 19 2 -4
BITMAP
3F00
7100
E100
E000
F000
FC00
7F00
5F80
C780
C180
F180
FD00
7E00
1F00
0780
0380
8380
C700
FE00
ENDCHAR
STARTCHAR dieresis
ENCODING 168
SWIDTH 42 0
DWIDTH 12 0
BBX 6 2 3 13
BITMAP
CC
CC
ENDCHAR
STARTCHAR copyright
ENCODING 169
SWIDTH 42 0
DWIDTH 17 0
BBX 16 15 1 0
BITMAP
07E0
1818
300C
63E6
4622
8C01
8C01
8C01
8C01
8C01
4622
63E6
300C
1818
07E0
ENDCHAR
STARTCHAR ordfeminine
ENCODING 170
SWIDTH 42 0
DWIDTH 10 0
BBX 9 8 1 7
BITMAP
FE00
8700
0700
3F00
F700
E700
E700
7B80
ENDCHAR
STARTCHAR guillemotleft
ENCODING 171
SWIDTH 42 0
DWIDTH 11 0
BBX 10 9 0 1
BITMAP
0840
1880
3180
7300
E700
7300
3180
1880
0840
ENDCHAR
STARTCHAR logicalnot
ENCODING 172
SWIDTH 42 0
DWIDTH 12 0
BBX 12 6 0 3
BITMAP
FFF0
0010
0010
0010
0010
0010
ENDCHAR
STARTCHAR hyphen
ENCODING 173
SWIDTH 42 0
DWIDTH 6 0
BBX 5 2 0 6
BITMAP
F8
F8
ENDCHAR
STARTCHAR registered
ENCODING 174
SWIDTH 42 0
DWIDTH 12 0
BBX 9 10 2 5
BITMAP
3E00
6300
5F00
9280
9280
9C80
9480
5700
6300
3E00
ENDCHAR
STARTCHAR macron
ENCODING 175
SWIDTH 42 0
DWIDTH 12 0
BBX 6 1 3 14
BITMAP
FC
ENDCHAR
STARTCHAR degree
ENCODING 176
SWIDTH 42 0
DWIDTH 5 0
BBX 3 4 1 11
BITMAP
40
A0
A0
40
ENDCHAR
STARTCHAR plusminus
ENCODING 177
SWIDTH 42 0
DWIDTH 12 0
BBX 11 13 1 0
BITMAP
0400
0400
0400
0400
0400
FFE0
0400
0400
0400
0400
0000
0000
FFE0
ENDCHAR
STARTCHAR twosuperior
ENCODING 178
SWIDTH 42 0
DWIDTH 7 0
BBX 6 9 -11 6
BITMAP
F8
8C
8C
0C
18
20
40
FC
FC
ENDCHAR
STARTCHAR threesuperior
ENCODING 179
SWIDTH 42 0
DWIDTH 7 0
BBX 6 9 -12 6
BITMAP
F8
8C
0C
08
70
1C
0C
8C
F8
ENDCHAR
STARTCHAR acute
ENCODING 180
SWIDTH 42 0
DWIDTH 12 0
BBX 5 3 4 12
BITMAP
38
60
C0
ENDCHAR
STARTCHAR mu
ENCODING 181
SWIDTH 42 0
DWIDTH 14 0
BBX 14 14 0 -3
BITMAP
F9F0
3870
3870
3870
3870
3870
3870
3870
38F0
3FF0
3E7C
3800
3800
3800
ENDCHAR
STARTCHAR paragraph
ENCODING 182
SWIDTH 42 0
DWIDTH 12 0
BBX 8 18 1 -3
BITMAP
7F
F9
F9
F9
F9
79
39
09
09
09
09
09
09
09
09
09
09
09
ENDCHAR
STARTCHAR periodcentered
ENCODING 183
SWIDTH 42 0
DWIDTH 12 0
BBX 2 3 5 5
BITMAP
C0
C0
C0
ENDCHAR
STARTCHAR cedilla
ENCODING 184
SWIDTH 42 0
DWIDTH 12 0
BBX 3 5 5 -4
BITMAP
40
C0
60
60
C0
ENDCHAR
STARTCHAR onesuperior
ENCODING 185
SWIDTH 42 0
DWIDTH 7 0
BBX 6 9 -12 6
BITMAP
F0
30
30
30
30
30
30
30
FC
ENDCHAR
STARTCHAR ordmasculine
ENCODING 186
SWIDTH 42 0
DWIDTH 10 0
BBX 9 8 0 7
BITMAP
3E00
7700
E380
E380
E380
E380
7700
3E00
ENDCHAR
STARTCHAR guillemotright
ENCODING 187
SWIDTH 42 0
DWIDTH 11 0
BBX 10 9 1 1
BITMAP
8400
4600
6300
3380
39C0
3380
6300
4600
8400
ENDCHAR
STARTCHAR onequarter
ENCODING 188
SWIDTH 42 0
DWIDTH 16 0
BBX 15 15 3 0
BITMAP
F01C
3018
3030
3070
30E0
30C0
318C
339C
FF2C
064C
0EFE
1CFE
180C
300C
701E
ENDCHAR
STARTCHAR onehalf
ENCODING 189
SWIDTH 42 0
DWIDTH 16 0
BBX 14 15 3 0
BITMAP
F01C
3018
3030
3070
30E0
30C0
31F8
338C
FF8C
060C
0E18
1C20
1840
30FC
70FC
ENDCHAR
STARTCHAR threequarters
ENCODING 190
SWIDTH 42 0
DWIDTH 16 0
BBX 15 15 3 0
BITMAP
F81C
8C18
0C30
0870
70E0
1CC0
0D8C
8F9C
FB2C
064C
0EFE
1CFE
180C
300C
701E
ENDCHAR
STARTCHAR questiondown
ENCODING 191
SWIDTH 42 0
DWIDTH 10 0
BBX 9 15 1 -4
BITMAP
0E00
0E00
0E00
0000
0E00
0E00
0C00
1800
1000
6000
E000
E000
E080
7180
3F80
ENDCHAR
STARTCHAR Agrave
ENCODING 192
SWIDTH 42 0
DWIDTH 16 0
BBX 16 19 0 0
BITMAP
0700
0180
00C0
0000
0180
0180
03C0
03C0
07E0
04E0
04F0
0870
0870
1FF8
1038
201C
201C
601E
F03F
ENDCHAR
STARTCHAR Aacute
ENCODING 193
SWIDTH 42 0
DWIDTH 16 0
BBX 16 19 0 0
BITMAP
00E0
0180
0300
0000
0180
0180
03C0
03C0
07E0
04E0
04F0
0870
0870
1FF8
1038
201C
201C
601E
F03F
ENDCHAR
STARTCHAR Acircumflex
ENCODING 194
SWIDTH 42 0
DWIDTH 16 0
BBX 16 19 0 0
BITMAP
01C0
0360
0630
0000
0180
0180
03C0
03C0
07E0
04E0
04F0
0870
0870
1FF8
1038
201C
201C
601E
F03F
ENDCHAR
STARTCHAR Atilde
ENCODING 195
SWIDTH 42 0
DWIDTH 16 0
BBX 16 19 0 0
BITMAP
0390
07F0
04E0
0000
0180
0180
03C0
03C0
07E0
04E0
04F0
0870
0870
1FF8
1038
201C
201C
601E
F03F
ENDCHAR
STARTCHAR Adieresis
ENCODING 196
SWIDTH 42 0
DWIDTH 16 0
BBX 16 18 0 0
BITMAP
0660
0660
0000
0180
0180
03C0
03C0
07E0
04E0
04F0
0870
0870
1FF8
1038
201C
201C
601E
F03F
ENDCHAR
STARTCHAR Aring
ENCODING 197
SWIDTH 42 0
DWIDTH 16 0
BBX 16 19 0 0
BITMAP
0380
0280
0380
0000
0180
0180
03C0
03C0
07E0
04E0
04F0
0870
0870
1FF8
1038
201C
201C
601E
F03F
ENDCHAR
STARTCHAR AE
ENCODING 198
SWIDTH 42 0
DWIDTH 19 0
BBX 19 15 0 0
BITMAP
007FE0
007820
00B820
00B800
013800
023800
023840
043FC0
043840
083800
1FF800
103800
203820
403820
F0FFE0
ENDCHAR
STARTCHAR Ccedilla
ENCODING 199
SWIDTH 42 0
DWIDTH 14 0
BBX 13 19 1 -4
BITMAP
07F0
1C18
3808
7008
E000
E000
E000
E000
E000
E000
E000
7000
3800
1C08
07F0
0200
0300
0300
0600
ENDCHAR
STARTCHAR Egrave
ENCODING 200
SWIDTH 42 0
DWIDTH 12 0
BBX 12 19 0 0
BITMAP
1C00
0600
0300
0000
FFE0
3820
3820
3800
3800
3800
3840
3FC0
3840
3800
3800
3800
3810
3830
FFF0
ENDCHAR
STARTCHAR Eacute
ENCODING 201
SWIDTH 42 0
DWIDTH 12 0
BBX 12 19 0 0
BITMAP
0380
0600
0C00
0000
FFE0
3820
3820
3800
3800
3800
3840
3FC0
3840
3800
3800
3800
3810
3830
FFF0
ENDCHAR
STARTCHAR Ecircumflex
ENCODING 202
SWIDTH 42 0
DWIDTH 12 0
BBX 12 19 0 0
BITMAP
0700
0D80
18C0
0000
FFE0
3820
3820
3800
3800
3800
3840
3FC0
3840
3800
3800
3800
3810
3830
FFF0
ENDCHAR
STARTCHAR Edieresis
ENCODING 203
SWIDTH 42 0
DWIDTH 12 0
BBX 12 18 0 0
BITMAP
1980
1980
0000
FFE0
3820
3820
3800
3800
3800
3840
3FC0
3840
3800
3800
3800
3810
3830
FFF0
ENDCHAR
STARTCHAR Igrave
ENCODING 204
SWIDTH 42 0
DWIDTH 7 0
BBX 7 19 0 0
BITMAP
E0
30
18
00
FE
38
38
38
38
38
38
38
38
38
38
38
38
38
FE
ENDCHAR
STARTCHAR Iacute
ENCODING 205
SWIDTH 42 0
DWIDTH 7 0
BBX 7 19 0 0
BITMAP
0E
18
30
00
FE
38
38
38
38
38
38
38
38
38
38
38
38
38
FE
ENDCHAR
STARTCHAR Icircumflex
ENCODING 206
SWIDTH 42 0
DWIDTH 7 0
BBX 7 19 0 0
BITMAP
38
6C
C6
00
FE
38
38
38
38
38
38
38
38
38
38
38
38
38
FE
ENDCHAR
STARTCHAR Idieresis
ENCODING 207
SWIDTH 42 0
DWIDTH 7 0
BBX 7 18 0 0
BITMAP
CC
CC
00
FE
38
38
38
38
38
38
38
38
38
38
38
38
38
FE
ENDCHAR
STARTCHAR Eth
ENCODING 208
SWIDTH 42 0
DWIDTH 16 0
BBX 15 15 0 0
BITMAP
FFE0
3878
381C
381C
380E
380E
380E
FF0E
380E
380E
380C
381C
3818
3838
FFE0
ENDCHAR
STARTCHAR Ntilde
ENCODING 209
SWIDTH 42 0
DWIDTH 16 0
BBX 15 19 0 0
BITMAP
0720
0FE0
09C0
0000
F03E
3808
3C08
3C08
3E08
2F08
2788
2388
23C8
21E8
20E8
20F8
2078
2038
F818
ENDCHAR
STARTCHAR Ograve
ENCODING 210
SWIDTH 42 0
DWIDTH 16 0
BBX 15 19 1 0
BITMAP
0E00
0300
0180
0000
0FE0
1C70
3018
701C
E00E
E00E
E00E
E00E
E00E
E00E
E00E
701C
3018
1C70
0FE0
ENDCHAR
STARTCHAR Oacute
ENCODING 211
SWIDTH 42 0
DWIDTH 16 0
BBX 15 19 1 0
BITMAP
00E0
0180
0300
0000
0FE0
1C70
3018
701C
E00E
E00E
E00E
E00E
E00E
E00E
E00E
701C
3018
1C70
0FE0
ENDCHAR
STARTCHAR Ocircumflex
ENCODING 212
SWIDTH 42 0
DWIDTH 16 0
BBX 15 19 1 0
BITMAP
0380
06C0
0C60
0000
0FE0
1C70
3018
701C
E00E
E00E
E00E
E00E
E00E
E00E
E00E
701C
3018
1C70
0FE0
ENDCHAR
STARTCHAR Otilde
ENCODING 213
SWIDTH 42 0
DWIDTH 16 0
BBX 15 19 1 0
BITMAP
0720
0FE0
09C0
0000
0FE0
1C70
3018
701C
E00E
E00E
E00E
E00E
E00E
E00E
E00E
701C
3018
1C70
0FE0
ENDCHAR
STARTCHAR Odieresis
ENCODING 214
SWIDTH 42 0
DWIDTH 16 0
BBX 15 18 1 0
BITMAP
0CC0
0CC0
0000
0FE0
1C70
3018
701C
E00E
E00E
E00E
E00E
E00E
E00E
E00E
701C
3018
1C70
0FE0
ENDCHAR
STARTCHAR multiply
ENCODING 215
SWIDTH 42 0
DWIDTH 12 0
BBX 12 13 0 0
BITMAP
C010
4030
2040
1080
1980
0F00
0600
0F00
1980
1080
2040
C020
8030
ENDCHAR
STARTCHAR Oslash
ENCODING 216
SWIDTH 42 0
DWIDTH 16 0
BBX 15 15 1 0
BITMAP
0FE6
1C3C
301C
701C
E02E
E04E
E08E
E10E
E20E
E40E
E80E
701C
7018
7870
C7E0
ENDCHAR
STARTCHAR Ugrave
ENCODING 217
SWIDTH 42 0
DWIDTH 15 0
BBX 15 19 0 0
BITMAP
0E00
0300
0180
0000
FE3E
3808
3808
3808
3808
3808
3808
3808
3808
3808
3808
3808
1C10
1C10
07E0
ENDCHAR
STARTCHAR Uacute
ENCODING 218
SWIDTH 42 0
DWIDTH 15 0
BBX 15 19 0 0
BITMAP
00E0
0180
0300
0000
FE3E
3808
3808
3808
3808
3808
3808
3808
3808
3808
3808
3808
1C10
1C10
07E0
ENDCHAR
STARTCHAR Ucircumflex
ENCODING 219
SWIDTH 42 0
DWIDTH 15 0
BBX 15 19 0 0
BITMAP
0380
06C0
0C60
0000
FE3E
3808
3808
3808
3808
3808
3808
3808
3808
3808
3808
3808
1C10
1C10
07E0
ENDCHAR
STARTCHAR Udieresis
ENCODING 220
SWIDTH 42 0
DWIDTH 15 0
BBX 15 18 0 0
BITMAP
0CC0
0CC0
0000
FE3E
3808
3808
3808
3808
3808
3808
3808
3808
3808
3808
3808
1C10
1C10
07E0
ENDCHAR
STARTCHAR Yacute
ENCODING 221
SWIDTH 42 0
DWIDTH 14 0
BBX 15 19 0 0
BITMAP
00E0
0180
0300
0000
FE1E
780C
3C08
1C10
1E30
0F20
0740
07C0
0380
0380
0380
0380
0380
0380
0FE0
ENDCHAR
STARTCHAR Thorn
ENCODING 222
SWIDTH 42 0
DWIDTH 12 0
BBX 12 15 0 0
BITMAP
FE00
3800
3800
3FC0
38E0
3870
3870
3870
3870
3860
38E0
3F80
3800
3800
FE00
ENDCHAR
STARTCHAR germandbls
ENCODING 223
SWIDTH 42 0
DWIDTH 14 0
BBX 13 15 1 0
BITMAP
0F80
18E0
38E0
38E0
3880
3900
3B00
3BC0
3BE0
39F0
38F8
3838
3938
3938
FDF0
ENDCHAR
STARTCHAR agrave
ENCODING 224
SWIDTH 42 0
DWIDTH 11 0
BBX 10 15 1 0
BITMAP
3800
0C00
0600
0000
3E00
6300
4380
0380
0380
3F80
F380
E380
E380
E380
7DC0
ENDCHAR
STARTCHAR aacute
ENCODING 225
SWIDTH 42 0
DWIDTH 11 0
BBX 10 15 1 0
BITMAP
0700
0C00
1800
0000
3E00
6300
4380
0380
0380
3F80
F380
E380
E380
E380
7DC0
ENDCHAR
STARTCHAR acircumflex
ENCODING 226
SWIDTH 42 0
DWIDTH 11 0
BBX 10 15 1 0
BITMAP
1C00
3600
6300
0000
3E00
6300
4380
0380
0380
3F80
F380
E380
E380
E380
7DC0
ENDCHAR
STARTCHAR atilde
ENCODING 227
SWIDTH 42 0
DWIDTH 11 0
BBX 10 15 1 0
BITMAP
3900
7F00
4E00
0000
3E00
6300
4380
0380
0380
3F80
F380
E380
E380
E380
7DC0
ENDCHAR
STARTCHAR adieresis
ENCODING 228
SWIDTH 42 0
DWIDTH 11 0
BBX 10 14 1 0
BITMAP
3300
3300
0000
3E00
6300
4380
0380
0380
3F80
F380
E380
E380
E380
7DC0
ENDCHAR
STARTCHAR aring
ENCODING 229
SWIDTH 42 0
DWIDTH 11 0
BBX 10 15 1 0
BITMAP
1C00
1400
1C00
0000
3E00
6300
4380
0380
0380
3F80
F380
E380
E380
E380
7DC0
ENDCHAR
STARTCHAR ae
ENCODING 230
SWIDTH 42 0
DWIDTH 17 0
BBX 16 11 0 0
BITMAP
3E7C
63CE
4386
0387
0387
3FFF
F380
E380
E3C0
F3E1
7C7F
ENDCHAR
STARTCHAR ccedilla
ENCODING 231
SWIDTH 42 0
DWIDTH 11 0
BBX 9 15 1 -4
BITMAP
1F80
7080
6080
E000
E000
E000
E000
E000
7000
3880
1F80
0800
0C00
0C00
1800
ENDCHAR
STARTCHAR egrave
ENCODING 232
SWIDTH 42 0
DWIDTH 11 0
BBX 10 15 0 0
BITMAP
3800
0C00
0600
0000
1F00
7380
6180
E1C0
E1C0
FFC0
E000
E000
7000
3840
1FC0
ENDCHAR
STARTCHAR eacute
ENCODING 233
SWIDTH 42 0
DWIDTH 11 0
BBX 10 15 0 0
BITMAP
0700
0C00
1800
0000
1F00
7380
6180
E1C0
E1C0
FFC0
E000
E000
7000
3840
1FC0
ENDCHAR
STARTCHAR ecircumflex
ENCODING 234
SWIDTH 42 0
DWIDTH 11 0
BBX 10 15 0 0
BITMAP
0E00
1B00
3180
0000
1F00
7380
6180
E1C0
E1C0
FFC0
E000
E000
7000
3840
1FC0
ENDCHAR
STARTCHAR edieresis
ENCODING 235
SWIDTH 42 0
DWIDTH 11 0
BBX 10 14 0 0
BITMAP
3300
3300
0000
1F00
7380
6180
E1C0
E1C0
FFC0
E000
E000
7000
3840
1FC0
ENDCHAR
STARTCHAR igrave
ENCODING 236
SWIDTH 42 0
DWIDTH 7 0
BBX 7 15 0 0
BITMAP
E0
30
18
00
F8
38
38
38
38
38
38
38
38
38
FE
ENDCHAR
STARTCHAR iacute
ENCODING 237
SWIDTH 42 0
DWIDTH 7 0
BBX 7 15 0 0
BITMAP
0E
18
30
00
F8
38
38
38
38
38
38
38
38
38
FE
ENDCHAR
STARTCHAR icircumflex
ENCODING 238
SWIDTH 42 0
DWIDTH 7 0
BBX 7 15 0 0
BITMAP
38
6C
C6
00
F8
38
38
38
38
38
38
38
38
38
FE
ENDCHAR
STARTCHAR idieresis
ENCODING 239
SWIDTH 42 0
DWIDTH 7 0
BBX 7 14 0 0
BITMAP
CC
CC
00
F8
38
38
38
38
38
38
38
38
38
FE
ENDCHAR
STARTCHAR eth
ENCODING 240
SWIDTH 42 0
DWIDTH 13 0
BBX 11 16 1 0
BITMAP
0300
FC00
1C00
3700
4380
1FC0
71C0
71E0
E0E0
E0E0
E0E0
E0E0
E0E0
71C0
3180
1F00
ENDCHAR
STARTCHAR ntilde
ENCODING 241
SWIDTH 42 0
DWIDTH 13 0
BBX 14 15 0 0
BITMAP
0E40
1FC0
1380
0000
F9E0
7BF0
3C70
3870
3870
3870
3870
3870
3870
3870
FFFC
ENDCHAR
STARTCHAR ograve
ENCODING 242
SWIDTH 42 0
DWIDTH 12 0
BBX 11 15 1 0
BITMAP
3800
0C00
0600
0000
1F00
71C0
71C0
E0E0
E0E0
E0E0
E0E0
E0E0
71C0
31C0
1F00
ENDCHAR
STARTCHAR oacute
ENCODING 243
SWIDTH 42 0
DWIDTH 12 0
BBX 11 15 1 0
BITMAP
0380
0600
0C00
0000
1F00
71C0
71C0
E0E0
E0E0
E0E0
E0E0
E0E0
71C0
31C0
1F00
ENDCHAR
STARTCHAR ocircumflex
ENCODING 244
SWIDTH 42 0
DWIDTH 12 0
BBX 11 15 1 0
BITMAP
0E00
1B00
3180
0000
1F00
71C0
71C0
E0E0
E0E0
E0E0
E0E0
E0E0
71C0
31C0
1F00
ENDCHAR
STARTCHAR otilde
ENCODING 245
SWIDTH 42 0
DWIDTH 12 0
BBX 11 15 1 0
BITMAP
1C80
3F80
2700
0000
1F00
71C0
71C0
E0E0
E0E0
E0E0
E0E0
E0E0
71C0
31C0
1F00
ENDCHAR
STARTCHAR odieresis
ENCODING 246
SWIDTH 42 0
DWIDTH 12 0
BBX 11 14 1 0
BITMAP
1980
1980
0000
1F00
71C0
71C0
E0E0
E0E0
E0E0
E0E0
E0E0
71C0
31C0
1F00
ENDCHAR
STARTCHAR divide
ENCODING 247
SWIDTH 42 0
DWIDTH 12 0
BBX 12 11 0 0
BITMAP
0600
0600
0000
0000
0000
FFF0
0000
0000
0000
0600
0600
ENDCHAR
STARTCHAR oslash
ENCODING 248
SWIDTH 42 0
DWIDTH 12 0
BBX 13 11 0 0
BITMAP
0F98
18E0
38E0
70F0
7170
7270
7470
7870
38E0
38C0
CF80
ENDCHAR
STARTCHAR ugrave
ENCODING 249
SWIDTH 42 0
DWIDTH 13 0
BBX 14 15 0 0
BITMAP
0E00
0300
0180
0000
F9F0
3870
3870
3870
3870
3870
3870
3870
38F0
3F78
1E7C
ENDCHAR
STARTCHAR uacute
ENCODING 250
SWIDTH 42 0
DWIDTH 13 0
BBX 14 15 0 0
BITMAP
01C0
0300
0600
0000
F9F0
3870
3870
3870
3870
3870
3870
3870
38F0
3F78
1E7C
ENDCHAR
STARTCHAR ucircumflex
ENCODING 251
SWIDTH 42 0
DWIDTH 13 0
BBX 14 15 0 0
BITMAP
0380
06C0
0C60
0000
F9F0
3870
3870
3870
3870
3870
3870
3870
38F0
3F78
1E7C
ENDCHAR
STARTCHAR udieresis
ENCODING 252
SWIDTH 42 0
DWIDTH 13 0
BBX 14 14 0 0
BITMAP
0CC0
0CC0
0000
F9F0
3870
3870
3870
3870
3870
3870
3870
38F0
3F78
1E7C
ENDCHAR
STARTCHAR yacute
ENCODING 253
SWIDTH 42 0
DWIDTH 13 0
BBX 13 19 0 -4
BITMAP
01C0
0300
0600
0000
FC78
7830
3820
3C40
1C40
1C80
0E80
0F00
0700
0600
0600
0400
0C00
1800
3800
ENDCHAR
STARTCHAR thorn
ENCODING 254
SWIDTH 42 0
DWIDTH 13 0
BBX 13 18 0 -4
BITMAP
F800
3800
3800
39E0
3BF0
3C70
3838
3838
3838
3838
3838
3870
3C70
3BC0
3800
3800
3800
FE00
ENDCHAR
STARTCHAR ydieresis
ENCODING 255
SWIDTH 42 0
DWIDTH 13 0
BBX 13 18 0 -4
BITMAP
1980
1980
0000
FC78
7830
3820
3C40
1C40
1C80
0E80
0F00
0700
0600
0600
0400
0C00
1800
3800
ENDCHAR
STARTCHAR fl
ENCODING -1
SWIDTH 42 0
DWIDTH 13 0
BBX 14 15 0 0
BITMAP
0FF0
18F0
3870
3870
FE70
3870
3870
3870
3870
3870
3870
3870
3870
3870
FCFC
ENDCHAR
STARTCHAR endash
ENCODING -1
SWIDTH 42 0
DWIDTH 10 0
BBX 9 1 1 7
BITMAP
FF80
ENDCHAR
STARTCHAR dagger
ENCODING -1
SWIDTH 42 0
DWIDTH 12 0
BBX 9 18 2 -3
BITMAP
1C00
1C00
1C00
1C00
1C00
1C00
FF80
DD80
1C00
1C00
1C00
1C00
1C00
1C00
1C00
1C00
1C00
1C00
ENDCHAR
STARTCHAR Zcaron
ENCODING -1
SWIDTH 42 0
DWIDTH 13 0
BBX 11 19 1 0
BITMAP
3180
1B00
0E00
0000
7FE0
41E0
41C0
03C0
0380
0700
0F00
0E00
1E00
1C00
3800
7800
7020
F060
FFE0
ENDCHAR
STARTCHAR oe
ENCODING -1
SWIDTH 42 0
DWIDTH 19 0
BBX 17 11 1 0
BITMAP
1F1E00
71E300
70E300
E0E380
E0E380
E0FF80
E0E000
E0E000
70F000
31F880
1F3F80
ENDCHAR
STARTCHAR Ydieresis
ENCODING -1
SWIDTH 42 0
DWIDTH 14 0
BBX 15 18 0 0
BITMAP
0CC0
0CC0
0000
FE1E
780C
3C08
1C10
1E30
0F20
0740
07C0
0380
0380
0380
0380
0380
0380
0FE0
ENDCHAR
STARTCHAR dotlessi
ENCODING -1
SWIDTH 42 0
DWIDTH 7 0
BBX 7 11 0 0
BITMAP
F8
38
38
38
38
38
38
38
38
38
FE
ENDCHAR
STARTCHAR lslash
ENCODING -1
SWIDTH 42 0
DWIDTH 7 0
BBX 7 15 0 0
BITMAP
F8
38
38
38
38
3A
3C
38
F8
B8
38
38
38
38
FE
ENDCHAR
STARTCHAR Lslash
ENCODING -1
SWIDTH 42 0
DWIDTH 12 0
BBX 12 15 0 0
BITMAP
FE00
3800
3800
3800
3A00
3E00
3800
7800
F800
3800
3800
3800
3810
3830
FFF0
ENDCHAR
STARTCHAR daggerdbl
ENCODING -1
SWIDTH 42 0
DWIDTH 12 0
BBX 9 18 2 -3
BITMAP
1C00
1C00
1C00
1C00
1C00
1C00
FF80
DD80
1C00
1C00
1C00
1C00
FF80
DD80
1C00
1C00
1C00
1C00
ENDCHAR
STARTCHAR fi
ENCODING -1
SWIDTH 42 0
DWIDTH 13 0
BBX 14 15 0 0
BITMAP
1F70
3970
3970
3800
FFF0
3870
3870
3870
3870
3870
3870
3870
3870
3870
FDFC
ENDCHAR
STARTCHAR guilsinglright
ENCODING -1
SWIDTH 42 0
DWIDTH 7 0
BBX 5 9 1 1
BITMAP
80
C0
60
30
38
30
60
C0
80
ENDCHAR
STARTCHAR OE
ENCODING -1
SWIDTH 42 0
DWIDTH 21 0
BBX 19 15 1 0
BITMAP
0FBFE0
387820
703820
703800
E03800
E03800
E03840
E03FC0
E03840
E03800
E03800
703800
303820
187820
0FBFE0
ENDCHAR
STARTCHAR emdash
ENCODING -1
SWIDTH 42 0
DWIDTH 20 0
BBX 18 1 1 6
BITMAP
FFFFC0
ENDCHAR
STARTCHAR caron
ENCODING -1
SWIDTH 42 0
DWIDTH 12 0
BBX 7 3 3 12
BITMAP
C6
6C
38
ENDCHAR
STARTCHAR ogonek
ENCODING -1
SWIDTH 42 0
DWIDTH 12 0
BBX 4 3 4 -3
BITMAP
60
C0
F0
ENDCHAR
STARTCHAR hungarumlaut
ENCODING -1
SWIDTH 42 0
DWIDTH 12 0
BBX 7 3 4 12
BITMAP
36
68
90
ENDCHAR
STARTCHAR guilsinglleft
ENCODING -1
SWIDTH 42 0
DWIDTH 7 0
BBX 5 9 1 1
BITMAP
08
18
30
60
E0
60
30
18
08
ENDCHAR
STARTCHAR dotaccent
ENCODING -1
SWIDTH 42 0
DWIDTH 12 0
BBX 2 3 5 12
BITMAP
C0
C0
C0
ENDCHAR
STARTCHAR breve
ENCODING -1
SWIDTH 42 0
DWIDTH 12 0
BBX 7 3 3 12
BITMAP
82
7C
38
ENDCHAR
STARTCHAR bullet
ENCODING -1
SWIDTH 42 0
DWIDTH 12 0
BBX 7 7 3 3
BITMAP
38
7C
FE
FE
FE
7C
38
ENDCHAR
STARTCHAR tilde
ENCODING -1
SWIDTH 42 0
DWIDTH 12 0
BBX 7 3 3 12
BITMAP
72
FE
9C
ENDCHAR
STARTCHAR circumflex
ENCODING -1
SWIDTH 42 0
DWIDTH 12 0
BBX 7 3 3 12
BITMAP
38
6C
C6
ENDCHAR
STARTCHAR quotedblleft
ENCODING -1
SWIDTH 42 0
DWIDTH 9 0
BBX 7 6 1 9
BITMAP
22
44
CC
EE
EE
EE
ENDCHAR
STARTCHAR quotesingle
ENCODING -1
SWIDTH 42 0
DWIDTH 5 0
BBX 3 6 1 9
BITMAP
E0
E0
E0
40
40
40
ENDCHAR
STARTCHAR scaron
ENCODING -1
SWIDTH 42 0
DWIDTH 10 0
BBX 9 15 1 0
BITMAP
6300
3600
1C00
0000
3F00
7100
E100
F000
FC00
7F00
1F80
8780
8380
C700
7E00
ENDCHAR
STARTCHAR ring
ENCODING -1
SWIDTH 42 0
DWIDTH 12 0
BBX 3 3 5 12
BITMAP
E0
A0
E0
ENDCHAR
STARTCHAR quotesinglbase
ENCODING -1
SWIDTH 42 0
DWIDTH 5 0
BBX 3 7 1 -3
BITMAP
E0
E0
E0
E0
60
60
C0
ENDCHAR
STARTCHAR florin
ENCODING -1
SWIDTH 42 0
DWIDTH 12 0
BBX 10 18 2 -3
BITMAP
03C0
0E40
0C40
1C00
1C00
3800
3800
7E00
3800
3800
7000
7000
7000
7000
7000
E000
E000
E000
ENDCHAR
STARTCHAR trademark
ENCODING -1
SWIDTH 42 0
DWIDTH 21 0
BBX 20 8 0 7
BITMAP
FF3CF0
991CE0
991EE0
181FE0
181760
181760
181660
3C3070
ENDCHAR
STARTCHAR fraction
ENCODING -1
SWIDTH 42 0
DWIDTH 1 0
BBX 13 15 -5 0
BITMAP
0038
0030
0060
00E0
01C0
0180
0300
0700
0600
0C00
1C00
3800
3000
6000
E000
ENDCHAR
STARTCHAR grave
ENCODING -1
SWIDTH 42 0
DWIDTH 12 0
BBX 5 3 3 12
BITMAP
E0
30
18
ENDCHAR
STARTCHAR perthousand
ENCODING -1
SWIDTH 42 0
DWIDTH 23 0
BBX 23 15 0 0
BITMAP
380600
440800
C61000
C63000
C66000
444000
388000
013838
024444
04C6C6
0CC6C6
18C6C6
10C6C6
204444
C03838
ENDCHAR
STARTCHAR ellipsis
ENCODING -1
SWIDTH 42 0
DWIDTH 20 0
BBX 15 2 3 0
BITMAP
C186
C186
ENDCHAR
STARTCHAR quotedblright
ENCODING -1
SWIDTH 42 0
DWIDTH 9 0
BBX 7 6 1 9
BITMAP
EE
EE
EE
66
44
88
ENDCHAR
STARTCHAR Scaron
ENCODING -1
SWIDTH 42 0
DWIDTH 11 0
BBX 10 19 1 0
BITMAP
6300
3600
1C00
0000
3F00
7180
E080
E080
E000
F800
7E00
3F00
0F80
03C0
01C0
81C0
81C0
C380
7E00
ENDCHAR
STARTCHAR quotedblbase
ENCODING -1
SWIDTH 42 0
DWIDTH 9 0
BBX 7 7 1 -3
BITMAP
EE
EE
EE
66
66
66
CC
ENDCHAR
STARTCHAR zcaron
ENCODING -1
SWIDTH 42 0
DWIDTH 12 0
BBX 10 15 1 0
BITMAP
3180
1B00
0E00
0000
FFC0
C3C0
8780
0700
0E00
1E00
3C00
3800
7840
F0C0
FFC0
ENDCHAR
ENDFONT
